<mxfile host="app.diagrams.net" modified="2021-08-26T10:43:27.149Z" agent="5.0 (Windows NT 10.0; Win64; x64) AppleWebKit/537.36 (KHTML, like Gecko) Chrome/92.0.4515.159 Safari/537.36" etag="ya0_4GTqt0oSzQI9ujut" version="14.9.9" type="github">
  <diagram name="Page-1" id="b98fa263-6416-c6ec-5b7d-78bf54ef71d0">
    <mxGraphModel dx="1730" dy="965" grid="1" gridSize="10" guides="1" tooltips="1" connect="1" arrows="1" fold="1" page="1" pageScale="1.5" pageWidth="1169" pageHeight="826" background="none" math="0" shadow="0">
      <root>
        <mxCell id="0" style=";html=1;" />
        <mxCell id="1" style=";html=1;" parent="0" />
        <mxCell id="D_THM7PeBZqgSnTUwa_s-135" value="" style="ellipse;whiteSpace=wrap;html=1;fontSize=25;align=center;verticalAlign=top;" vertex="1" parent="1">
          <mxGeometry x="110" y="130" width="300" height="120" as="geometry" />
        </mxCell>
        <mxCell id="D_THM7PeBZqgSnTUwa_s-88" value="" style="edgeStyle=elbowEdgeStyle;rounded=0;orthogonalLoop=1;jettySize=auto;elbow=vertical;html=1;" edge="1" parent="1" source="303ed1de8c2c98b4-5" target="D_THM7PeBZqgSnTUwa_s-87">
          <mxGeometry relative="1" as="geometry" />
        </mxCell>
        <mxCell id="D_THM7PeBZqgSnTUwa_s-91" style="edgeStyle=elbowEdgeStyle;rounded=0;orthogonalLoop=1;jettySize=auto;elbow=vertical;html=1;exitX=0.5;exitY=1;exitDx=0;exitDy=0;entryX=0.5;entryY=0;entryDx=0;entryDy=0;" edge="1" parent="1" source="303ed1de8c2c98b4-5" target="D_THM7PeBZqgSnTUwa_s-90">
          <mxGeometry relative="1" as="geometry" />
        </mxCell>
        <mxCell id="303ed1de8c2c98b4-5" value="Prestige" style="whiteSpace=wrap;html=1;rounded=1;shadow=1;strokeWidth=1;fontSize=16;align=center;fillColor=#f5f5f5;strokeColor=#666666;" parent="1" vertex="1">
          <mxGeometry x="560" y="270" width="275" height="40" as="geometry" />
        </mxCell>
        <mxCell id="D_THM7PeBZqgSnTUwa_s-19" value="" style="edgeStyle=orthogonalEdgeStyle;rounded=0;orthogonalLoop=1;jettySize=auto;html=1;" edge="1" parent="1" source="303ed1de8c2c98b4-7">
          <mxGeometry relative="1" as="geometry">
            <mxPoint x="130" y="350" as="targetPoint" />
          </mxGeometry>
        </mxCell>
        <mxCell id="D_THM7PeBZqgSnTUwa_s-21" style="edgeStyle=orthogonalEdgeStyle;rounded=0;orthogonalLoop=1;jettySize=auto;html=1;entryX=0.5;entryY=0;entryDx=0;entryDy=0;" edge="1" parent="1" source="303ed1de8c2c98b4-7">
          <mxGeometry relative="1" as="geometry">
            <mxPoint x="380" y="350" as="targetPoint" />
          </mxGeometry>
        </mxCell>
        <mxCell id="303ed1de8c2c98b4-7" value="Main" style="whiteSpace=wrap;html=1;rounded=1;shadow=1;strokeWidth=1;fontSize=16;align=center;fillColor=#f5f5f5;strokeColor=#666666;" parent="1" vertex="1">
          <mxGeometry x="118" y="270" width="275" height="40" as="geometry" />
        </mxCell>
        <mxCell id="303ed1de8c2c98b4-77" style="edgeStyle=orthogonalEdgeStyle;html=1;startSize=6;endFill=0;endSize=6;strokeWidth=1;fontSize=16;rounded=0;endArrow=none;" parent="1" target="303ed1de8c2c98b4-3" edge="1">
          <mxGeometry relative="1" as="geometry">
            <mxPoint x="706" y="205" as="sourcePoint" />
          </mxGeometry>
        </mxCell>
        <mxCell id="D_THM7PeBZqgSnTUwa_s-4" value="" style="edgeStyle=orthogonalEdgeStyle;rounded=0;orthogonalLoop=1;jettySize=auto;html=1;" edge="1" parent="1" source="D_THM7PeBZqgSnTUwa_s-2">
          <mxGeometry relative="1" as="geometry">
            <mxPoint x="885" y="160" as="targetPoint" />
          </mxGeometry>
        </mxCell>
        <mxCell id="D_THM7PeBZqgSnTUwa_s-12" value="" style="edgeStyle=orthogonalEdgeStyle;rounded=0;orthogonalLoop=1;jettySize=auto;html=1;" edge="1" parent="1" source="D_THM7PeBZqgSnTUwa_s-2" target="D_THM7PeBZqgSnTUwa_s-11">
          <mxGeometry relative="1" as="geometry" />
        </mxCell>
        <mxCell id="D_THM7PeBZqgSnTUwa_s-2" value="Start Game" style="whiteSpace=wrap;html=1;rounded=1;shadow=1;strokeWidth=1;fontSize=16;align=center;fillColor=#f5f5f5;strokeColor=#666666;" vertex="1" parent="1">
          <mxGeometry x="630" y="40" width="510" height="40" as="geometry" />
        </mxCell>
        <mxCell id="D_THM7PeBZqgSnTUwa_s-16" style="edgeStyle=orthogonalEdgeStyle;rounded=0;orthogonalLoop=1;jettySize=auto;html=1;entryX=0.5;entryY=0;entryDx=0;entryDy=0;" edge="1" parent="1" source="D_THM7PeBZqgSnTUwa_s-11" target="303ed1de8c2c98b4-7">
          <mxGeometry relative="1" as="geometry" />
        </mxCell>
        <mxCell id="D_THM7PeBZqgSnTUwa_s-11" value="Show Offline Bonus" style="whiteSpace=wrap;html=1;rounded=1;shadow=1;strokeWidth=1;fontSize=16;align=center;fillColor=#f5f5f5;strokeColor=#666666;" vertex="1" parent="1">
          <mxGeometry x="630" y="160" width="510" height="40" as="geometry" />
        </mxCell>
        <mxCell id="D_THM7PeBZqgSnTUwa_s-93" style="edgeStyle=elbowEdgeStyle;rounded=0;orthogonalLoop=1;jettySize=auto;elbow=vertical;html=1;exitX=0.5;exitY=1;exitDx=0;exitDy=0;entryX=0.5;entryY=0;entryDx=0;entryDy=0;" edge="1" parent="1" source="D_THM7PeBZqgSnTUwa_s-87" target="D_THM7PeBZqgSnTUwa_s-92">
          <mxGeometry relative="1" as="geometry" />
        </mxCell>
        <mxCell id="D_THM7PeBZqgSnTUwa_s-87" value="Prestige" style="whiteSpace=wrap;html=1;rounded=1;shadow=1;strokeWidth=1;fontSize=16;align=center;fillColor=#f5f5f5;strokeColor=#666666;" vertex="1" parent="1">
          <mxGeometry x="520" y="350" width="180" height="30" as="geometry" />
        </mxCell>
        <mxCell id="D_THM7PeBZqgSnTUwa_s-90" value="Spremacy" style="whiteSpace=wrap;html=1;rounded=1;shadow=1;strokeWidth=1;fontSize=16;align=center;fillColor=#f5f5f5;strokeColor=#666666;" vertex="1" parent="1">
          <mxGeometry x="720" y="350" width="180" height="30" as="geometry" />
        </mxCell>
        <mxCell id="D_THM7PeBZqgSnTUwa_s-92" value="Reset All variables and &lt;br&gt;regular upgrades&lt;br&gt;&lt;br&gt;Gain b &amp;amp; μ" style="shape=ext;double=1;rounded=0;whiteSpace=wrap;html=1;align=center;verticalAlign=top;" vertex="1" parent="1">
          <mxGeometry x="520" y="400" width="180" height="90" as="geometry" />
        </mxCell>
        <mxCell id="D_THM7PeBZqgSnTUwa_s-94" value="Reset All variables and &lt;br&gt;regular upgrades and&lt;br&gt;&amp;nbsp;&lt;b&gt;Prestige upgrades&lt;/b&gt;&lt;br&gt;&lt;br&gt;Gain φ" style="shape=ext;double=1;rounded=0;whiteSpace=wrap;html=1;align=center;verticalAlign=top;" vertex="1" parent="1">
          <mxGeometry x="720" y="400" width="180" height="90" as="geometry" />
        </mxCell>
        <mxCell id="D_THM7PeBZqgSnTUwa_s-95" style="edgeStyle=elbowEdgeStyle;rounded=0;orthogonalLoop=1;jettySize=auto;elbow=vertical;html=1;exitX=0.5;exitY=1;exitDx=0;exitDy=0;entryX=0.5;entryY=0;entryDx=0;entryDy=0;" edge="1" target="D_THM7PeBZqgSnTUwa_s-94" parent="1">
          <mxGeometry relative="1" as="geometry">
            <mxPoint x="810" y="380" as="sourcePoint" />
          </mxGeometry>
        </mxCell>
        <mxCell id="D_THM7PeBZqgSnTUwa_s-101" value="" style="edgeStyle=elbowEdgeStyle;rounded=0;orthogonalLoop=1;jettySize=auto;elbow=vertical;html=1;" edge="1" parent="1" source="D_THM7PeBZqgSnTUwa_s-96">
          <mxGeometry relative="1" as="geometry">
            <mxPoint x="1088" y="348" as="targetPoint" />
          </mxGeometry>
        </mxCell>
        <mxCell id="D_THM7PeBZqgSnTUwa_s-96" value="Star Bonus" style="whiteSpace=wrap;html=1;rounded=1;shadow=1;strokeWidth=1;fontSize=16;align=center;fillColor=#f5f5f5;strokeColor=#666666;" vertex="1" parent="1">
          <mxGeometry x="950" y="270" width="275" height="40" as="geometry" />
        </mxCell>
        <mxCell id="D_THM7PeBZqgSnTUwa_s-98" value="" style="shape=ext;double=1;rounded=0;whiteSpace=wrap;html=1;align=center;verticalAlign=top;" vertex="1" parent="1">
          <mxGeometry x="950" y="350" width="280" height="220" as="geometry" />
        </mxCell>
        <mxCell id="D_THM7PeBZqgSnTUwa_s-102" value="&lt;ul style=&quot;font-size: 16px&quot;&gt;&lt;li&gt;New variables&lt;/li&gt;&lt;li&gt;Buy All&lt;/li&gt;&lt;li&gt;Variable Auto-Buyer&lt;/li&gt;&lt;li&gt;Upgrade Auto-Buyer&lt;/li&gt;&lt;li&gt;Auto Prestige&lt;/li&gt;&lt;li&gt;x2 Automation / s&lt;/li&gt;&lt;li&gt;Acceleration Button&lt;/li&gt;&lt;li&gt;Starting level of upgrades&lt;/li&gt;&lt;/ul&gt;" style="text;strokeColor=none;fillColor=none;html=1;whiteSpace=wrap;verticalAlign=top;overflow=hidden;" vertex="1" parent="1">
          <mxGeometry x="960" y="360" width="260" height="210" as="geometry" />
        </mxCell>
        <mxCell id="D_THM7PeBZqgSnTUwa_s-109" value="" style="edgeStyle=elbowEdgeStyle;rounded=0;orthogonalLoop=1;jettySize=auto;elbow=vertical;html=1;" edge="1" parent="1" source="D_THM7PeBZqgSnTUwa_s-103" target="D_THM7PeBZqgSnTUwa_s-107">
          <mxGeometry relative="1" as="geometry" />
        </mxCell>
        <mxCell id="D_THM7PeBZqgSnTUwa_s-103" value="Achievement&amp;nbsp; (#119)" style="whiteSpace=wrap;html=1;rounded=1;shadow=1;strokeWidth=1;fontSize=16;align=center;fillColor=#f5f5f5;strokeColor=#666666;" vertex="1" parent="1">
          <mxGeometry x="1310" y="270" width="275" height="40" as="geometry" />
        </mxCell>
        <mxCell id="D_THM7PeBZqgSnTUwa_s-106" value="" style="shape=ext;double=1;rounded=0;whiteSpace=wrap;html=1;align=center;verticalAlign=top;" vertex="1" parent="1">
          <mxGeometry x="1307.5" y="350" width="282.5" height="280" as="geometry" />
        </mxCell>
        <mxCell id="D_THM7PeBZqgSnTUwa_s-107" value="&lt;ul style=&quot;font-size: 16px&quot;&gt;&lt;li&gt;Money&lt;/li&gt;&lt;li&gt;Tics&lt;/li&gt;&lt;li&gt;Prestige&lt;/li&gt;&lt;li&gt;Supremacy&lt;/li&gt;&lt;li&gt;Students&lt;/li&gt;&lt;li&gt;Graduation&lt;/li&gt;&lt;li&gt;Theories&lt;/li&gt;&lt;li&gt;Rewards&lt;/li&gt;&lt;li&gt;Play TIme&lt;/li&gt;&lt;li&gt;Stars&lt;/li&gt;&lt;li&gt;Minigames&lt;/li&gt;&lt;li&gt;Secrets&lt;/li&gt;&lt;/ul&gt;" style="text;strokeColor=none;fillColor=none;html=1;whiteSpace=wrap;verticalAlign=top;overflow=hidden;" vertex="1" parent="1">
          <mxGeometry x="1317.5" y="360" width="262.5" height="260" as="geometry" />
        </mxCell>
        <mxCell id="D_THM7PeBZqgSnTUwa_s-108" value="" style="edgeStyle=elbowEdgeStyle;rounded=0;orthogonalLoop=1;jettySize=auto;elbow=vertical;html=1;" edge="1" parent="1" source="D_THM7PeBZqgSnTUwa_s-96">
          <mxGeometry relative="1" as="geometry">
            <mxPoint x="1087.5" y="310" as="sourcePoint" />
            <mxPoint x="1088" y="348" as="targetPoint" />
            <Array as="points">
              <mxPoint x="1450" y="320" />
            </Array>
          </mxGeometry>
        </mxCell>
        <mxCell id="D_THM7PeBZqgSnTUwa_s-119" value="" style="edgeStyle=elbowEdgeStyle;rounded=0;orthogonalLoop=1;jettySize=auto;elbow=vertical;html=1;" edge="1" parent="1" source="D_THM7PeBZqgSnTUwa_s-112">
          <mxGeometry relative="1" as="geometry">
            <mxPoint x="130" y="420" as="targetPoint" />
          </mxGeometry>
        </mxCell>
        <mxCell id="D_THM7PeBZqgSnTUwa_s-112" value="Normal Upgrades" style="whiteSpace=wrap;html=1;rounded=1;shadow=1;strokeWidth=1;fontSize=16;align=center;fillColor=#f5f5f5;strokeColor=#666666;" vertex="1" parent="1">
          <mxGeometry x="40" y="350" width="180" height="30" as="geometry" />
        </mxCell>
        <mxCell id="D_THM7PeBZqgSnTUwa_s-115" value="Variable Upgrades" style="whiteSpace=wrap;html=1;rounded=1;shadow=1;strokeWidth=1;fontSize=16;align=center;fillColor=#f5f5f5;strokeColor=#666666;" vertex="1" parent="1">
          <mxGeometry x="280" y="350" width="180" height="30" as="geometry" />
        </mxCell>
        <mxCell id="D_THM7PeBZqgSnTUwa_s-130" value="" style="edgeStyle=elbowEdgeStyle;rounded=0;orthogonalLoop=1;jettySize=auto;elbow=vertical;html=1;" edge="1" parent="1">
          <mxGeometry relative="1" as="geometry">
            <mxPoint x="375" y="380" as="sourcePoint" />
            <mxPoint x="375" y="420" as="targetPoint" />
          </mxGeometry>
        </mxCell>
        <mxCell id="D_THM7PeBZqgSnTUwa_s-133" value="&lt;font color=&quot;#ff3333&quot;&gt;基本アップグレード&lt;/font&gt;" style="text;html=1;strokeColor=none;fillColor=none;align=center;verticalAlign=middle;whiteSpace=wrap;rounded=0;fontSize=25;" vertex="1" parent="1">
          <mxGeometry x="130" y="140" width="260" height="120" as="geometry" />
        </mxCell>
        <mxCell id="D_THM7PeBZqgSnTUwa_s-141" value="" style="ellipse;whiteSpace=wrap;html=1;fontSize=25;align=center;verticalAlign=top;" vertex="1" parent="1">
          <mxGeometry x="937.5" y="650" width="300" height="120" as="geometry" />
        </mxCell>
        <mxCell id="D_THM7PeBZqgSnTUwa_s-142" value="&lt;font color=&quot;#ff3333&quot;&gt;自動化&lt;/font&gt;" style="text;html=1;strokeColor=none;fillColor=none;align=center;verticalAlign=middle;whiteSpace=wrap;rounded=0;fontSize=25;" vertex="1" parent="1">
          <mxGeometry x="957.5" y="650" width="260" height="120" as="geometry" />
        </mxCell>
        <mxCell id="D_THM7PeBZqgSnTUwa_s-143" value="" style="ellipse;whiteSpace=wrap;html=1;fontSize=25;align=center;verticalAlign=top;" vertex="1" parent="1">
          <mxGeometry x="1297.5" y="660" width="300" height="120" as="geometry" />
        </mxCell>
        <mxCell id="D_THM7PeBZqgSnTUwa_s-144" value="&lt;font color=&quot;#ff3333&quot;&gt;目標&lt;/font&gt;" style="text;html=1;strokeColor=none;fillColor=none;align=center;verticalAlign=middle;whiteSpace=wrap;rounded=0;fontSize=25;" vertex="1" parent="1">
          <mxGeometry x="1317.5" y="660" width="260" height="120" as="geometry" />
        </mxCell>
        <mxCell id="D_THM7PeBZqgSnTUwa_s-145" value="" style="shape=flexArrow;endArrow=classic;html=1;fontSize=25;exitX=0.009;exitY=0.357;exitDx=0;exitDy=0;exitPerimeter=0;endWidth=56.66666666666667;endSize=12.766666666666667;" edge="1" parent="1" source="D_THM7PeBZqgSnTUwa_s-106">
          <mxGeometry width="50" height="50" relative="1" as="geometry">
            <mxPoint x="1300" y="450" as="sourcePoint" />
            <mxPoint x="1230" y="450" as="targetPoint" />
          </mxGeometry>
        </mxCell>
        <mxCell id="D_THM7PeBZqgSnTUwa_s-148" value="&lt;font style=&quot;font-size: 13px&quot;&gt;Get Stars from Achievement&lt;/font&gt;" style="edgeLabel;html=1;align=center;verticalAlign=middle;resizable=0;points=[];fontSize=25;labelBorderColor=#000000;" vertex="1" connectable="0" parent="D_THM7PeBZqgSnTUwa_s-145">
          <mxGeometry x="-0.3992" y="2" relative="1" as="geometry">
            <mxPoint x="-37" y="-52" as="offset" />
          </mxGeometry>
        </mxCell>
        <mxCell id="D_THM7PeBZqgSnTUwa_s-151" value="&lt;table border=&quot;1&quot; width=&quot;100%&quot; cellpadding=&quot;4&quot; style=&quot;width: 100% ; height: 100% ; border-collapse: collapse&quot;&gt;&lt;tbody&gt;&lt;tr&gt;&lt;th align=&quot;center&quot;&gt;Regular&lt;/th&gt;&lt;/tr&gt;&lt;tr&gt;&lt;td align=&quot;center&quot;&gt;&lt;ol style=&quot;text-align: left ; font-size: 16px&quot;&gt;&lt;li&gt;x upgrade (Free)&lt;/li&gt;&lt;li&gt;y upgrade&lt;/li&gt;&lt;li&gt;z upgrade&lt;/li&gt;&lt;li&gt;s upgrade&lt;/li&gt;&lt;li&gt;u upgrade&lt;/li&gt;&lt;li&gt;v upgrade&lt;/li&gt;&lt;li&gt;w upgrade&lt;/li&gt;&lt;li&gt;so on...&lt;/li&gt;&lt;/ol&gt;&lt;/td&gt;&lt;/tr&gt;&lt;/tbody&gt;&lt;/table&gt;" style="text;html=1;fillColor=none;overflow=fill;fontSize=25;align=center;verticalAlign=top;strokeWidth=2;strokeColor=#000000;" vertex="1" parent="1">
          <mxGeometry x="30" y="420" width="200" height="220" as="geometry" />
        </mxCell>
        <mxCell id="D_THM7PeBZqgSnTUwa_s-152" style="edgeStyle=elbowEdgeStyle;rounded=0;orthogonalLoop=1;jettySize=auto;elbow=vertical;html=1;exitX=0.75;exitY=0;exitDx=0;exitDy=0;fontSize=25;" edge="1" parent="1">
          <mxGeometry relative="1" as="geometry">
            <mxPoint x="487.5" y="800" as="sourcePoint" />
            <mxPoint x="487.5" y="800" as="targetPoint" />
          </mxGeometry>
        </mxCell>
        <mxCell id="D_THM7PeBZqgSnTUwa_s-153" value="&lt;table border=&quot;1&quot; width=&quot;100%&quot; cellpadding=&quot;4&quot; style=&quot;width: 100% ; height: 100% ; border-collapse: collapse&quot;&gt;&lt;tbody&gt;&lt;tr&gt;&lt;th align=&quot;center&quot;&gt;Regular&lt;/th&gt;&lt;/tr&gt;&lt;tr&gt;&lt;td align=&quot;center&quot;&gt;&lt;ol style=&quot;text-align: left ; font-size: 16px&quot;&gt;&lt;li&gt;dt upgrade (Free)&lt;/li&gt;&lt;li&gt;dt upgrade&lt;/li&gt;&lt;li&gt;y factor upgrade&lt;/li&gt;&lt;li&gt;z factor upgrade&lt;/li&gt;&lt;li&gt;s factor upgrade&lt;/li&gt;&lt;li&gt;u factor upgrade&lt;/li&gt;&lt;li&gt;v factor upgrade&lt;/li&gt;&lt;li&gt;so on...&lt;/li&gt;&lt;/ol&gt;&lt;/td&gt;&lt;/tr&gt;&lt;/tbody&gt;&lt;/table&gt;" style="text;html=1;fillColor=none;overflow=fill;fontSize=25;align=center;verticalAlign=top;strokeWidth=2;strokeColor=#000000;" vertex="1" parent="1">
          <mxGeometry x="280" y="420" width="200" height="220" as="geometry" />
        </mxCell>
        <mxCell id="D_THM7PeBZqgSnTUwa_s-161" value="" style="endArrow=none;html=1;fontSize=25;" edge="1" parent="1">
          <mxGeometry width="50" height="50" relative="1" as="geometry">
            <mxPoint x="379" y="680" as="sourcePoint" />
            <mxPoint x="379.16999999999996" y="640" as="targetPoint" />
          </mxGeometry>
        </mxCell>
        <mxCell id="D_THM7PeBZqgSnTUwa_s-162" value="&lt;table border=&quot;1&quot; width=&quot;100%&quot; cellpadding=&quot;4&quot; style=&quot;width: 100% ; height: 100% ; border-collapse: collapse&quot;&gt;&lt;tbody&gt;&lt;tr&gt;&lt;th align=&quot;center&quot;&gt;Prestige&lt;/th&gt;&lt;/tr&gt;&lt;tr&gt;&lt;td align=&quot;center&quot;&gt;&lt;ol style=&quot;text-align: left ; font-size: 16px&quot;&gt;&lt;li&gt;dt upgrade&lt;/li&gt;&lt;li&gt;y factor upgrade&lt;/li&gt;&lt;/ol&gt;&lt;/td&gt;&lt;/tr&gt;&lt;/tbody&gt;&lt;/table&gt;" style="text;html=1;fillColor=none;overflow=fill;fontSize=25;align=center;verticalAlign=top;strokeWidth=2;strokeColor=#000000;" vertex="1" parent="1">
          <mxGeometry x="280" y="680" width="200" height="130" as="geometry" />
        </mxCell>
        <mxCell id="D_THM7PeBZqgSnTUwa_s-164" value="&lt;table border=&quot;1&quot; width=&quot;100%&quot; cellpadding=&quot;4&quot; style=&quot;width: 100% ; height: 100% ; border-collapse: collapse&quot;&gt;&lt;tbody&gt;&lt;tr&gt;&lt;th align=&quot;center&quot;&gt;Spremacy&lt;/th&gt;&lt;/tr&gt;&lt;tr&gt;&lt;td align=&quot;center&quot;&gt;&lt;ol style=&quot;text-align: left ; font-size: 16px&quot;&gt;&lt;li&gt;y exponent upgrade&lt;/li&gt;&lt;li&gt;Unlock x1&lt;/li&gt;&lt;/ol&gt;&lt;/td&gt;&lt;/tr&gt;&lt;/tbody&gt;&lt;/table&gt;" style="text;html=1;fillColor=none;overflow=fill;fontSize=25;align=center;verticalAlign=top;strokeWidth=2;strokeColor=#000000;" vertex="1" parent="1">
          <mxGeometry x="280" y="870" width="200" height="130" as="geometry" />
        </mxCell>
        <mxCell id="D_THM7PeBZqgSnTUwa_s-171" value="" style="endArrow=none;html=1;fontSize=25;" edge="1" parent="1">
          <mxGeometry width="50" height="50" relative="1" as="geometry">
            <mxPoint x="380" y="870" as="sourcePoint" />
            <mxPoint x="380" y="810" as="targetPoint" />
          </mxGeometry>
        </mxCell>
        <mxCell id="D_THM7PeBZqgSnTUwa_s-137" value="" style="ellipse;whiteSpace=wrap;html=1;fontSize=25;align=center;verticalAlign=top;" vertex="1" parent="1">
          <mxGeometry x="570" y="520" width="300" height="120" as="geometry" />
        </mxCell>
        <mxCell id="D_THM7PeBZqgSnTUwa_s-138" value="&lt;font color=&quot;#ff3333&quot;&gt;リセット&lt;/font&gt;" style="text;html=1;strokeColor=none;fillColor=none;align=center;verticalAlign=middle;whiteSpace=wrap;rounded=0;fontSize=25;" vertex="1" parent="1">
          <mxGeometry x="590" y="520" width="260" height="120" as="geometry" />
        </mxCell>
      </root>
    </mxGraphModel>
  </diagram>
</mxfile>
